#!OML:ASF X:\für Bonn\!DataBase\2005_08_10_Bjorn_Final\c3d\bjorn.ASF
:FULLY-SPECIFIED
:DEGREES
162
root 0.0650244 19.2446 3.70598 -183.06 -26.772 181.282
lowerback -1.24805 -4.45733 -1.88033
upperback 9.71914 -6.68811 0.235481
thorax 11.329 -3.73525 0.486865
lowerneck -11.542 -4.2276 -1.73611
upperneck 16.3096 -6.35279 3.04168
head 7.04499 -3.01884 0.648126
rclavicle 2.3556e-014 -1.59028e-015
rhumerus -34.1977 -5.57405 -82.5671
rradius 33.02
rwrist 7.83519
rhand -7.68464 12.0571
rfingers 7.12502
rthumb 18.2123 -17.1102
lclavicle 2.3556e-014 -1.59028e-015
lhumerus 18.921 -41.8812 55.9363
lradius 70.8511
lwrist 5.05333
lhand -36.8184 -22.1294
lfingers 7.12502
lthumb -9.89943 7.61787
rfemur -23.7012 -8.67116 15.6071
rtibia 56.7828
rfoot -7.1938 0.0945051
rtoes -32.1861
lfemur -9.72482 27.1838 -15.7014
ltibia 28.3624
lfoot 18.5815 -43.6053
ltoes 29.6157
163
root 0.057445 19.2282 3.6759 -182.498 -25.8008 180.979
lowerback -2.02141 -4.28226 -1.67867
upperback 9.46214 -6.40629 0.32656
thorax 11.479 -3.5558 0.453896
lowerneck -11.3723 -3.88345 -1.84191
upperneck 16.8139 -5.84637 2.63928
head 7.1556 -2.82803 0.582745
rclavicle 7.87684e-014 -2.46493e-014
rhumerus -33.5567 -6.21335 -82.3331
rradius 32.8381
rwrist 8.10184
rhand -7.98988 12.0738
rfingers 7.12502
rthumb 17.9186 -17.1207
lclavicle 7.87684e-014 -2.46493e-014
lhumerus 17.1923 -43.0832 56.7886
lradius 69.1193
lwrist 4.05661
lhand -37.2835 -21.9816
lfingers 7.12502
lthumb -10.3481 7.74375
rfemur -22.2821 -8.77399 15.6308
rtibia 54.1585
rfoot -8.52823 -0.279413
rtoes -33.4197
lfemur -10.2733 27.6164 -16.0803
ltibia 28.8191
lfoot 17.8593 -43.5652
ltoes 29.7421
164
root 0.0513758 19.2138 3.64698 -181.982 -24.8148 180.74
lowerback -2.74477 -4.10643 -1.41715
upperback 9.2138 -6.13643 0.416317
thorax 11.6045 -3.37947 0.393935
lowerneck -11.1842 -3.52683 -1.86768
upperneck 17.322 -5.3268 2.17025
head 7.2619 -2.63603 0.483729
rclavicle 3.40916e-014 -6.65929e-015
rhumerus -32.9134 -6.89688 -82.1289
rradius 32.6262
rwrist 8.46002
rhand -8.29197 12.1388
rfingers 7.12502
rthumb 17.6279 -17.0821
lclavicle 3.40916e-014 -6.65929e-015
lhumerus 15.2444 -44.1359 57.9051
lradius 67.3871
lwrist 3.08574
lhand -37.5219 -21.9232
lfingers 7.12502
lthumb -10.5781 7.79056
rfemur -20.9331 -8.92113 15.6871
rtibia 51.6484
rfoot -9.95774 -0.474351
rtoes -34.2217
lfemur -10.7749 27.7923 -16.4252
ltibia 29.2102
lfoot 16.844 -43.2923
ltoes 29.9373
165
root 0.0460523 19.2 3.61926 -181.494 -23.791 180.504
lowerback -3.41299 -3.92062 -1.16447
upperback 8.96881 -5.8621 0.522585
thorax 11.706 -3.20546 0.365485
lowerneck -10.9152 -3.15631 -1.92998
upperneck 17.808 -4.78275 1.6936
head 7.34979 -2.44073 0.391295
rclavicle 7.75881e-014 -2.18663e-014
rhumerus -32.2626 -7.60431 -81.8941
rradius 32.4109
rwrist 8.9008
rhand -8.54556 12.1974
rfingers 7.12502
rthumb 17.3838 -17.0453
lclavicle 7.75881e-014 -2.18663e-014
lhumerus 13.1021 -45.0123 59.3015
lradius 65.6198
lwrist 2.10541
lhand -37.4355 -21.7726
lfingers 7.12502
lthumb -10.4948 7.94541
rfemur -19.6502 -9.05759 15.7148
rtibia 49.232
rfoot -11.4965 -0.506894
rtoes -34.7612
lfemur -11.2225 27.7771 -16.7907
ltibia 29.5476
lfoot 15.3863 -42.9082
ltoes 29.7085
166
root 0.0417633 19.1907 3.59176 -181.035 -22.7495 180.348
lowerback -4.05951 -3.71406 -0.81847
upperback 8.7332 -5.57576 0.628746
thorax 11.7975 -3.01942 0.292446
lowerneck -10.6262 -2.78992 -1.92914
upperneck 18.2602 -4.25065 1.1964
head 7.4242 -2.25192 0.280135
rclavicle -4.20554e-015 -1.9133e-015
rhumerus -31.5562 -8.62436 -81.6231
rradius 32.0758
rwrist 9.61788
rhand -8.7873 12.318
rfingers 7.12502
rthumb 17.1512 -16.945
lclavicle -4.20554e-015 -1.9133e-015
lhumerus 10.8379 -45.7893 60.8792
lradius 63.8504
lwrist 1.05011
lhand -37.1786 -21.4619
lfingers 7.12502
lthumb -10.247 8.26846
rfemur -18.5494 -9.08875 15.7758
rtibia 46.9005
rfoot -13.09 -0.414752
rtoes -34.6432
lfemur -11.656 27.559 -17.1041
ltibia 29.8602
lfoot 13.6236 -42.3539
ltoes 29.4781
167
root 0.0387565 19.1823 3.56512 -180.602 -21.6968 180.194
lowerback -4.69526 -3.50795 -0.490492
upperback 8.55774 -5.30591 0.74515
thorax 11.9586 -2.84805 0.238452
lowerneck -10.368 -2.41955 -1.94266
upperneck 18.6409 -3.70392 0.714668
head 7.48422 -2.05558 0.176909
rclavicle 1.45361e-014 2.5842e-015
rhumerus -30.7511 -9.65383 -81.3804
rradius 31.7571
rwrist 10.3458
rhand -8.98715 12.456
rfingers 7.12502
rthumb 16.9588 -16.8236
lclavicle 1.45361e-014 2.5842e-015
lhumerus 8.46538 -46.2736 62.689
lradius 62.0418
lwrist -0.181039
lhand -36.9571 -21.258
lfingers 7.12502
lthumb -10.0333 8.48279
rfemur -17.5221 -9.04121 15.8182
rtibia 44.6572
rfoot -14.6804 -0.136255
rtoes -34.1516
lfemur -12.0579 27.1341 -17.4405
ltibia 30.1637
lfoot 11.3561 -41.6016
ltoes 28.7844
168
root 0.0371841 19.1719 3.53935 -180.182 -20.6151 180.063
lowerback -5.2927 -3.27912 -0.134655
upperback 8.38236 -5.01412 0.857726
thorax 12.0959 -2.66501 0.17509
lowerneck -10.0806 -2.05688 -1.90543
upperneck 18.9923 -3.17078 0.201837
head 7.5312 -1.86721 0.0532994
rclavicle -1.03368e-014 1.19271e-015
rhumerus -29.9564 -10.6495 -81.1822
rradius 31.4299
rwrist 11.0885
rhand -9.2498 12.556
rfingers 7.12502
rthumb 16.706 -16.7452
lclavicle -1.03368e-014 1.19271e-015
lhumerus 5.98728 -46.5417 64.7421
lradius 60.2298
lwrist -1.30641
lhand -36.5845 -21.1668
lfingers 7.12502
lthumb -9.67374 8.59102
rfemur -16.5911 -8.954 15.8559
rtibia 42.515
rfoot -15.9424 0.431094
rtoes -33.0574
lfemur -12.4435 26.482 -17.7762
ltibia 30.4568
lfoot 8.65107 -40.6389
ltoes 27.732
169
root 0.0377329 19.1613 3.51429 -179.794 -19.5404 179.954
lowerback -5.87249 -3.04753 0.283415
upperback 8.25921 -4.73399 0.922728
thorax 12.2765 -2.48221 0.0264677
lowerneck -9.88629 -1.6949 -1.82669
upperneck 19.3676 -2.65009 -0.264124
head 7.6062 -1.67804 -0.0657195
rclavicle 4.87022e-014 -7.35503e-015
rhumerus -29.1126 -11.3991 -81.1842
rradius 31.1683
rwrist 11.5333
rhand -9.50317 12.615
rfingers 7.12502
rthumb 16.462 -16.7066
lclavicle 4.87022e-014 -7.35503e-015
lhumerus 3.52446 -46.5477 66.8106
lradius 58.4129
lwrist -2.37912
lhand -35.9581 -21.0801
lfingers 7.12502
lthumb -9.06934 8.70491
rfemur -15.7429 -8.82898 15.8995
rtibia 40.4919
rfoot -16.752 1.16748
rtoes -31.1588
lfemur -12.7974 25.7276 -18.0982
ltibia 30.7546
lfoot 5.78668 -39.4761
ltoes 26.3735
170
root 0.0396366 19.1534 3.48954 -179.435 -18.4518 179.888
lowerback -6.42819 -2.78339 0.807722
upperback 8.1578 -4.42588 0.939982
thorax 12.4595 -2.27488 -0.223753
lowerneck -9.6694 -1.35661 -1.66167
upperneck 19.6705 -2.17087 -0.728853
head 7.65572 -1.50128 -0.202406
rclavicle 1.23246e-014 -3.97569e-016
rhumerus -28.3211 -12.0205 -81.3257
rradius 31.0073
rwrist 11.8231
rhand -9.7632 12.5207
rfingers 7.12502
rthumb 16.2117 -16.8215
lclavicle 1.23246e-014 -3.97569e-016
lhumerus 1.10857 -46.3948 68.8336
lradius 56.6216
lwrist -3.44426
lhand -35.2564 -20.9251
lfingers 7.12502
lthumb -8.39221 8.88821
rfemur -15.0043 -8.63378 15.9671
rtibia 38.6244
rfoot -17.3911 2.06358
rtoes -28.5193
lfemur -13.1119 24.8144 -18.3744
ltibia 31.0188
lfoot 2.81643 -38.0006
ltoes 24.7161
171
root 0.0430973 19.1456 3.46529 -179.08 -17.341 179.802
lowerback -6.94342 -2.48717 1.35763
upperback 8.06168 -4.07658 0.897477
thorax 12.6244 -2.04257 -0.540197
lowerneck -9.47938 -1.03855 -1.4302
upperneck 20.0158 -1.7437 -1.13319
head 7.72732 -1.34062 -0.337045
rclavicle 4.1546e-014 3.57812e-015
rhumerus -27.5921 -12.6089 -81.5697
rradius 30.9335
rwrist 12.0568
rhand -10.0307 12.3639
rfingers 7.12502
rthumb 15.9541 -16.999
lclavicle 4.1546e-014 3.57812e-015
lhumerus -1.29315 -46.0657 70.8184
lradius 54.8443
lwrist -4.54938
lhand -34.6324 -20.9503
lfingers 7.12502
lthumb -7.78996 8.88617
rfemur -14.4217 -8.50785 15.9947
rtibia 36.9636
rfoot -17.8879 3.14651
rtoes -25.7902
lfemur -13.3717 23.8113 -18.674
ltibia 31.2035
lfoot -0.103394 -36.2649
ltoes 22.7391
172
root 0.0475197 19.1446 3.44069 -178.761 -16.2338 179.72
lowerback -7.38834 -2.21265 1.81032
upperback 7.98096 -3.76459 0.943513
thorax 12.785 -1.84523 -0.70707
lowerneck -9.3914 -0.721681 -1.40771
upperneck 20.4364 -1.29586 -1.46212
head 7.8478 -1.1817 -0.412667
rclavicle 5.04913e-014 -2.78299e-014
rhumerus -26.8044 -13.0537 -81.7196
rradius 30.8327
rwrist 12.2615
rhand -10.3015 12.2423
rfingers 7.12502
rthumb 15.6933 -17.1414
lclavicle 5.04913e-014 -2.78299e-014
lhumerus -3.68318 -45.362 72.9621
lradius 53.0565
lwrist -5.76326
lhand -34.351 -21.2331
lfingers 7.12502
lthumb -7.51837 8.61333
rfemur -14.0072 -8.46683 15.9937
rtibia 35.5571
rfoot -18.2729 4.34793
rtoes -23.4567
lfemur -13.536 22.7433 -18.9572
ltibia 31.2784
lfoot -2.7534 -34.2495
ltoes 20.6506
173
root 0.0534075 19.1528 3.4143 -178.454 -15.1036 179.641
lowerback -7.78745 -1.9532 2.20882
upperback 7.88988 -3.47484 1.03374
thorax 12.9164 -1.66766 -0.794211
lowerneck -9.30165 -0.408673 -1.54356
upperneck 20.8941 -0.844949 -1.71863
head 7.98388 -1.03134 -0.438489
rclavicle -1.3418e-014 1.03368e-014
rhumerus -26.0565 -13.2601 -81.8419
rradius 30.7762
rwrist 12.3487
rhand -10.5892 12.1075
rfingers 7.12502
rthumb 15.4162 -17.2977
lclavicle -1.3418e-014 1.03368e-014
lhumerus -6.10929 -44.3812 75.1886
lradius 51.2959
lwrist -6.85393
lhand -34.3002 -21.5883
lfingers 7.12502
lthumb -7.4693 8.25982
rfemur -13.812 -8.5871 15.9646
rtibia 34.4272
rfoot -18.4809 5.72926
rtoes -21.4737
lfemur -13.6254 21.7135 -19.2251
ltibia 31.2636
lfoot -5.1292 -32.0949
ltoes 18.3307
174
root 0.0601747 19.164 3.38946 -178.176 -13.9913 179.581
lowerback -8.11298 -1.7208 2.59727
upperback 7.79753 -3.22757 1.15236
thorax 13.0057 -1.51548 -0.846974
lowerneck -9.20153 -0.0912491 -1.81564
upperneck 21.3315 -0.379298 -1.89919
head 8.11336 -0.879812 -0.414648
rclavicle 1.64991e-014 -1.74931e-014
rhumerus -25.3128 -13.3123 -81.9688
rradius 30.7396
rwrist 12.3132
rhand -10.7941 11.9728
rfingers 7.12502
rthumb 15.2188 -17.4474
lclavicle 1.64991e-014 -1.74931e-014
lhumerus -8.50399 -43.0823 77.4049
lradius 49.5271
lwrist -7.91477
lhand -34.3482 -21.8321
lfingers 7.12502
lthumb -7.51565 8.01438
rfemur -13.785 -8.92239 15.9365
rtibia 33.5654
rfoot -18.5929 7.24135
rtoes -20.4153
lfemur -13.6637 20.4545 -19.4584
ltibia 31.1763
lfoot -7.07888 -29.6643
ltoes 16.3907
175
root 0.0685513 19.1691 3.36555 -177.92 -12.8593 179.482
lowerback -8.38091 -1.49296 2.9311
upperback 7.72478 -2.98212 1.26011
thorax 13.0866 -1.37052 -0.877891
lowerneck -9.04195 0.220467 -2.08509
upperneck 21.6679 0.0769668 -2.05654
head 8.19831 -0.728509 -0.382897
rclavicle -8.54774e-015 -4.6118e-014
rhumerus -24.583 -13.2123 -82.1321
rradius 30.774
rwrist 12.1147
rhand -10.9976 11.8416
rfingers 7.12502
rthumb 15.0228 -17.5934
lclavicle -8.54774e-015 -4.6118e-014
lhumerus -10.7717 -41.5517 79.4717
lradius 47.7951
lwrist -8.81332
lhand -34.3793 -22.1186
lfingers 7.12502
lthumb -7.54569 7.72685
rfemur -13.8868 -9.41216 15.8563
rtibia 32.9423
rfoot -18.5622 8.89086
rtoes -19.6029
lfemur -13.6558 19.1852 -19.7216
ltibia 31.0611
lfoot -8.76195 -27.1246
ltoes 14.4977
